<svg xmlns="http://www.w3.org/2000/svg" xmlns:xlink="http://www.w3.org/1999/xlink" width="1280" zoomAndPan="magnify" viewBox="0 0 960 479.999983" height="640" preserveAspectRatio="xMidYMid meet" version="1.0"><defs><clipPath id="id1"><path d="M 24 123.898438 L 663 123.898438 L 663 356.398438 L 24 356.398438 Z M 24 123.898438 " clip-rule="nonzero"/></clipPath><clipPath id="id2"><path d="M 675.484375 129.039062 L 772.984375 129.039062 L 772.984375 339.789062 L 675.484375 339.789062 Z M 675.484375 129.039062 " clip-rule="nonzero"/></clipPath><clipPath id="id3"><path d="M 738.273438 123.898438 L 936 123.898438 L 936 356.398438 L 738.273438 356.398438 Z M 738.273438 123.898438 " clip-rule="nonzero"/></clipPath></defs><g clip-path="url(#id1)"><path fill="rgb(85.879517%, 12.548828%, 17.248535%)" d="M 598.859375 123.898438 L 598.859375 293.207031 C 619.71875 294.1875 640.507812 295.351562 661.261719 296.738281 L 661.261719 332.644531 C 628.460938 330.445312 595.535156 328.773438 562.460938 327.640625 L 562.460938 123.898438 Z M 887.992188 123.921875 L 840.605469 233.90625 L 887.972656 356.296875 L 887.921875 356.332031 C 874.121094 354.355469 860.316406 352.496094 846.460938 350.707031 L 819.851562 282.015625 L 793.003906 344.335938 C 780.28125 342.933594 767.539062 341.597656 754.765625 340.347656 L 800.953125 233.171875 L 758.648438 123.921875 L 798.015625 123.917969 L 821.691406 185.058594 L 848.03125 123.917969 L 887.992188 123.917969 Z M 437.589844 325.871094 L 437.589844 123.921875 L 539.160156 123.921875 L 539.160156 160.140625 L 473.972656 160.140625 L 473.972656 207.082031 L 523.296875 207.082031 L 523.296875 242.980469 L 473.972656 242.980469 L 473.972656 325.855469 Z M 301.730469 160.144531 L 301.730469 123.921875 L 414.269531 123.921875 L 414.269531 160.140625 L 376.199219 160.140625 L 376.199219 326.851562 C 364.050781 327.171875 351.917969 327.542969 339.800781 328 L 339.800781 160.144531 Z M 177.34375 338.4375 L 177.34375 123.917969 L 278.410156 123.921875 L 278.410156 160.140625 L 213.730469 160.140625 L 213.730469 209.203125 C 228.582031 209.011719 249.707031 208.796875 262.851562 208.828125 L 262.851562 244.726562 C 246.398438 244.523438 227.835938 244.953125 213.730469 245.09375 L 213.730469 299.441406 C 235.230469 297.75 256.777344 296.265625 278.410156 295.011719 L 278.410156 330.917969 C 244.558594 332.863281 210.878906 335.378906 177.34375 338.4375 Z M 105.96875 255.449219 L 105.96875 123.917969 L 142.355469 123.917969 L 142.355469 341.820312 C 129.054688 343.1875 115.777344 344.640625 102.523438 346.179688 L 60.390625 224.984375 L 60.390625 351.382812 C 48.242188 352.953125 36.113281 354.609375 24.007812 356.332031 L 24.007812 123.917969 L 58.585938 123.921875 Z M 691.285156 334.804688 L 691.285156 123.917969 L 727.667969 123.921875 L 727.667969 337.816406 C 715.550781 336.734375 703.417969 335.738281 691.285156 334.808594 Z M 691.285156 334.804688 " fill-opacity="1" fill-rule="nonzero"/></g><g clip-path="url(#id2)"><path fill="rgb(85.879517%, 12.548828%, 17.248535%)" d="M 711.429688 128.566406 L 711.429688 297.871094 C 732.289062 298.851562 753.078125 300.019531 773.832031 301.40625 L 773.832031 337.308594 C 741.027344 335.113281 708.105469 333.441406 675.03125 332.308594 L 675.03125 128.566406 Z M 1000.5625 128.585938 L 953.175781 238.574219 L 1000.542969 360.964844 L 1000.492188 361 C 986.691406 359.023438 972.886719 357.164062 959.03125 355.371094 L 932.421875 286.683594 L 905.574219 349.003906 C 892.851562 347.601562 880.109375 346.265625 867.335938 345.015625 L 913.523438 237.839844 L 871.21875 128.585938 L 910.585938 128.585938 L 934.261719 189.726562 L 960.601562 128.585938 Z M 550.160156 330.539062 L 550.160156 128.585938 L 651.726562 128.589844 L 651.726562 164.808594 L 586.542969 164.808594 L 586.542969 211.75 L 635.867188 211.75 L 635.867188 247.644531 L 586.542969 247.644531 L 586.542969 330.523438 Z M 414.300781 164.808594 L 414.300781 128.585938 L 526.839844 128.585938 L 526.839844 164.808594 L 488.769531 164.808594 L 488.769531 331.519531 C 476.621094 331.839844 464.488281 332.210938 452.371094 332.667969 L 452.371094 164.8125 L 414.300781 164.8125 Z M 289.914062 343.105469 L 289.914062 128.582031 L 390.980469 128.589844 L 390.980469 164.808594 L 326.300781 164.808594 L 326.300781 213.871094 C 341.148438 213.679688 362.277344 213.464844 375.421875 213.496094 L 375.421875 249.394531 C 358.96875 249.191406 340.40625 249.621094 326.300781 249.761719 L 326.300781 304.109375 C 347.796875 302.417969 369.347656 300.929688 390.980469 299.679688 L 390.980469 335.585938 C 357.128906 337.53125 323.449219 340.046875 289.914062 343.105469 Z M 218.539062 260.113281 L 218.539062 128.582031 L 254.925781 128.585938 L 254.925781 346.484375 C 241.625 347.855469 228.347656 349.308594 215.09375 350.84375 L 172.960938 229.652344 L 172.960938 356.050781 C 160.8125 357.621094 148.683594 359.277344 136.578125 361 L 136.578125 128.585938 L 171.15625 128.585938 L 218.539062 260.117188 Z M 803.855469 339.472656 L 803.855469 128.582031 L 840.238281 128.585938 L 840.238281 342.484375 C 828.121094 341.402344 815.988281 340.40625 803.855469 339.476562 Z M 803.855469 339.472656 " fill-opacity="1" fill-rule="nonzero"/></g><g clip-path="url(#id3)"><path fill="rgb(85.879517%, 12.548828%, 17.248535%)" d="M 646.859375 123.898438 L 646.859375 293.207031 C 667.71875 294.1875 688.507812 295.351562 709.261719 296.738281 L 709.261719 332.644531 C 676.460938 330.445312 643.535156 328.773438 610.460938 327.640625 L 610.460938 123.898438 Z M 935.992188 123.921875 L 888.605469 233.90625 L 935.972656 356.296875 L 935.921875 356.332031 C 922.121094 354.355469 908.316406 352.496094 894.460938 350.707031 L 867.851562 282.015625 L 841.003906 344.335938 C 828.28125 342.933594 815.539062 341.597656 802.765625 340.347656 L 848.953125 233.171875 L 806.648438 123.921875 L 846.015625 123.917969 L 869.691406 185.058594 L 896.03125 123.917969 L 935.992188 123.917969 Z M 485.589844 325.871094 L 485.589844 123.921875 L 587.160156 123.921875 L 587.160156 160.140625 L 521.972656 160.140625 L 521.972656 207.082031 L 571.296875 207.082031 L 571.296875 242.980469 L 521.972656 242.980469 L 521.972656 325.855469 Z M 349.730469 160.144531 L 349.730469 123.921875 L 462.269531 123.921875 L 462.269531 160.140625 L 424.199219 160.140625 L 424.199219 326.851562 C 412.050781 327.171875 399.917969 327.542969 387.800781 328 L 387.800781 160.144531 Z M 225.34375 338.4375 L 225.34375 123.917969 L 326.410156 123.921875 L 326.410156 160.140625 L 261.730469 160.140625 L 261.730469 209.203125 C 276.582031 209.011719 297.707031 208.796875 310.851562 208.828125 L 310.851562 244.726562 C 294.398438 244.523438 275.835938 244.953125 261.730469 245.09375 L 261.730469 299.441406 C 283.230469 297.75 304.777344 296.265625 326.410156 295.011719 L 326.410156 330.917969 C 292.558594 332.863281 258.878906 335.378906 225.34375 338.4375 Z M 153.96875 255.449219 L 153.96875 123.917969 L 190.355469 123.917969 L 190.355469 341.820312 C 177.054688 343.1875 163.777344 344.640625 150.523438 346.179688 L 108.390625 224.984375 L 108.390625 351.382812 C 96.242188 352.953125 84.113281 354.609375 72.007812 356.332031 L 72.007812 123.917969 L 106.585938 123.921875 Z M 739.285156 334.804688 L 739.285156 123.917969 L 775.667969 123.921875 L 775.667969 337.816406 C 763.550781 336.734375 751.417969 335.738281 739.285156 334.808594 Z M 739.285156 334.804688 " fill-opacity="1" fill-rule="nonzero"/></g><path fill="rgb(85.879517%, 12.548828%, 17.248535%)" d="M 675.484375 123.898438 L 711.484375 123.898438 L 711.484375 159.898438 L 675.484375 159.898438 L 675.484375 123.898438 " fill-opacity="1" fill-rule="nonzero"/></svg>